<?xml version="1.0" encoding="UTF-8"?>
<svg id="Layer_1" xmlns="http://www.w3.org/2000/svg" version="1.1" viewBox="0 0 397.05 188.06">
  <!-- Generator: Adobe Illustrator 30.5.1, SVG Export Plug-In . SVG Version: 2.1.4 Build 3)  -->
  <path d="M397.05,83.52H0v38.54h397.05v-38.54Z" fill="#ffcb05"/>
  <path d="M94.28,108.43l-2.62-20.88-9.63,1.01c.63-1.77.77-3.31.37-4.73l.65-.9c.88-7.04,1.25-15.01,2-22.27.49-4.79-1.88-6.67-4.25-7.43l-18.33-8.72c-.36-2.03.15-4.37,2.27-5.36.69-.32,1.38-1.16,1.49-2.82.25-3.71-1.49-3.72-1.63-4.48-.12-1.29.25-2.46,1.36-3.47,1.77-1.8,2.52-4.07,1.63-6.03-2.55-5.61-6.22-2.68-7.1-2.94-1.01-.39-1.25-1.03-1.5-1.53-1.74-3.84-8.36-5.65-13.07-5.65-4.26,0-7.89,1.07-10.86,4.61-3.39,2.57-5.25,7.07-2.76,12.68.27.78.37,2.57,0,2.97-.88.75-1.74,1.26-2.62,1.52-2.22-3.59-3.74-8.98-5.34-12.31-.14-1,.24-2.68.48-3.96.37-1.42.14-2.97-.23-3.85-.64-3.33-1.51-6.53-2.5-9.86C21.19.85,20.27-.06,18.94,0c-1.85.08-2.38,2.37-2.24,5.71-1.39.26-2.73,1.16-3.62,2.43-1.38-.53-2.38-.14-3.26,1.15-.93-.23-1.72.03-2.36.63-.69.66-1.05,1.6-1.04,2.56.02,2.17.82,3.63,2.42,4.62-.76,1.78.23,4.1,2.23,6.92,0,.25-.25.48-.48.74l-1.11,1.04,4.49,17.55c1,5.13,1.98,11.79,2.98,19.08.23,2.18.35,4.21,0,6.15l-3.75,23.31c1.38,1.41,7.37,3.08,14.72,4.75l.5,4.08-14.72,3.71c-.98.52-.86,2.79.5,2.94l27.31-2.82,1.01-4.2c.61-.76,1.61-.89,2.63-.14l3.1,9.6,20.97,5.65c1.13.23,2.12.23,2.62-.28.61-.62.61-1.93,0-3.32l22.45-3.46v.03ZM31.19,98.98l-.25-3.34,2.11-.12.36,3.32-2.22.14ZM57.86,102.95v-3.57c.89-.4,1.88-.8,2.75-1.42.78,0,1.4.38,2.01,1.27l1.24,7.16c-2.11-.77-4.23-2.68-5.99-3.44" fill="#ffffff" fill-rule="evenodd"/>
  <path d="M54.65,29.09c.87,0,1.48.65,1.48,1.56s-.61,1.51-1.48,1.51-1.5-.64-1.5-1.51.63-1.56,1.5-1.56ZM44.49,21.23c1.97.5,3.47.5,4.96-.52.63.38,1.49.72,2.35.62,2.67-.31,4.96-1.13,6.57.88.24.78,0,1.32-.76,1.68-3.33-1.01-4.69,0-6.42,3.05.11.76,1.21.24,2.47-.73.75-.94,1.86-1.34,2.47-1.04l3.47.63c.99,0,1.87,1.27,1.73,3.05.14,4.07-.98,7.78-.59,14.89.05.82-.09,1.42-.38,1.91-.31.54-.87.9-1.49,1.01-3.35.6-6.71,1.31-10.05,2.13-1.23.17-2.36.17-3.58-.24-2.49-.75-5.57-1.5-7.31-2.64-1.62-.91-2.51-2.69-2.37-5.11.13-2.17.87-3.94.75-6.74l-.61-8.12c.24-2.3,1.12-3.83,3.36-3.83.36.1.73.89.73,1.42-.61.87-1.14,1.87-1.47,2.89-.14.92.74,1.4,1.47.65.62-1.27,1.61-1.9,3.46-1.27,1.37,1.14,2.23,2.4,2.23,4.33-.13,1.89-.13,3.19-.24,4.96,0,.78.12,1.29.74,1.55.38.34.38.87.24,1.26-.62.5-1.24.76-1.85.64-1.51-.38-2.85-1.29-4.12-2.41-.47-.77-1.34,0-1.08.75l2.23,2.16c1.34,1.27,2.23,5.08,6.81,5.08,4.58.27,5.45-3.02,6.55-4.56.52-.76,1.01-1.65,1.76-2.41.73-.15,1.22-.4,1.49-1.01-.27-.65-.89-1.27-1.49-1.03-.39,0-.27.26-.63.64l-.62,1.14c-3.73,2.54-5.2,2.16-5.71.63l1.36-1.38c.37-.91-.24-1.27-.75-1.03-1.62,1.03-3.1,1.03-3.72-.75.13-1.8.52-3.95.38-5.61-.38-2.05-1.48-3.71-3.84-5.34-.85-.66-.47-2.68,1.49-2.16M41.52,29.5c.87,0,1.6.64,1.6,1.53s-.73,1.52-1.6,1.52c-.76,0-1.49-.62-1.49-1.52s.73-1.53,1.49-1.53ZM45.36,39.66h6.31c.51,0,.74.28.64.76-.64,1.8-1.99,2.56-3.86,2.56-1.73.13-2.97-.64-3.83-1.79-.77-1.01-.39-1.53.74-1.53ZM51.31,49.98c2.61-.52,5.1-1.18,7.3-1.94.86-.35,1.74-.12,1.59.94-.47,1.87-1.98,4.55-3.45,6.46-.86,1.02-1.84,1.02-3.09,0-1.36-1.13-2.61-2.53-3.35-4.07-.13-1.02.27-1.5.99-1.39M44.62,50.24c-2.61-.63-3.73-1.54-5.97-2.31-.84-.38-1.84,0-1.48,1.53.38,1.91,1.36,3.82,3.85,6.12.86.76.62.49,1.62,0,1.35-1.14,2.1-2.29,2.84-3.82.24-1.03,0-1.41-.87-1.52M19.6,6.92c-.5-2-.75-3.67-.89-5.08,0-.86.19-1.26.76-1.2.42.04.76.34.93.73.68,1.61,1.35,3.66,1.55,6.18l-2.35-.64h0ZM17.97,5.59c-1.1-.13-1.73.22-2.1,1.52-.37,1.65,0,3.57,1.5,5.6.75.5,1.11.24,1.34-.66-1.23-2.42-.49-5.06-.73-6.47M14.01,7.59c-1.37-.49-1.83.29-1.97,1.55-.12,3.68,1.48,5.36,3.35,3.57-.88-1.8-1.38-3.57-1.38-5.11M10.29,9.5c-.86-.36-1.11.13-1.24,1.03-.1,2.68,1.36,4.7,2.49,3.44-.74-1.27-1.12-3.3-1.24-4.47M15.38,14.23c.86-.76,1.22-.25,1.6.76.12.77.49,1.52,1.37,2.29.48.62,1.36,1.27,1.72,1.9.52-.12.86-.76.52-1.38-1.52-1.14-1.76-1.53-1.62-3.06.1-1,.99-1.53,2.35-1.91-.98-1.13-1.75-2.29-1.61-3.42.12-.9,1.11-1.16,1.85-.53.87.53,1.5,1.52,2.48,4.2.36.9.5,1.78.25,2.8-.74,4.46-4.46,5.86-7.04,4.2-.76,1.16-2.24,1.41-3.36,1.02-1.97-1.02-2.23-2.54-2.23-4.44-.12-1.04.26-1.54.87-1.8.76-.27,2.33-.27,2.85-.63ZM70.5,89.93l19.61-1.53,1.85,15.26-19.22,2.8-2.24-16.53ZM63.82,90.29l4.7-.23,1.97,16.4c-1.36.62-2.97.5-4.69-.25l-1.99-15.92h0ZM67.79,83.19c-.27-2.56.99-4.46,2.37-5.49.85-.64,2.2-.77,3.32.12.73-.12,1.61.14,2.48.91.76-.15,1.49.25,2.23.9,2,.76,3.57.8,2.99,3.55-.2.92-.84,1.69-1.75,2.44-1.23,1.01-2.48,1.25-2.71-.15,0,0-1.6,1.38-2.25,1.64-1.97.78-1.38-1.65-1.62-3.41-.33-2.46-1.84-2.68-2.36-1.41-.25,2.42-2.43,2.69-2.7,1,0-.02-.01-.1-.01-.1h.01Z" fill="#fff" fill-rule="evenodd"/>
  <path d="M138.98,62.66c.05,5.84-.48,11.71-7.54,13.64-1.67.57-7.17.79-11.38.79-.59,0-1.15,0-1.68-.01-4.37,0-7.52-.22-9.36-.66-1.87-.45-3.46-1.24-4.71-2.36-3.69-3.11-3.64-8.5-3.6-13.25v-.21h6.12v.2c.02.54.03,1.08.03,1.62.04,3.29.07,6.4,2.5,7.94.7.38,1.83.66,3.35.83,1.56.17,4.85.26,9.77.26.45-.02.89-.03,1.32-.04,3.38-.09,5.82-.15,7.94-2.01.94-1.27.97-2.86,1.02-4.87,0-.32,0-.64.03-.97-.02-.44-.04-.88-.05-1.28-.18-4.58-.23-5.81-4.83-6.32l-14.57-1.11c-4.45-.34-7.59-1.46-9.33-3.33-2.89-2.52-3.23-11.94-1.77-15.96,2.46-6.41,7.23-6.47,13.83-6.56.75-.01,1.52-.02,2.32-.04,7.61-.03,14.17-.05,17.54,3.53,2.06,2.19,2.84,5.69,2.38,10.67l-.02.19h-6.09v-.2c-.02-.48-.02-.96-.02-1.45,0-2.07,0-4.2-1.14-5.51-.58-.56-1.68-.97-3.26-1.22-1.65-.25-4.85-.38-9.51-.38s-7.73.51-8.9,1.51c-.73.44-1.29,1.81-1.56,3.76-.44,3.15-.02,6.54.95,7.57.74.91,2.23,1.46,4.43,1.64l14.87,1.21c8.16.79,10.82,3.8,10.93,12.4v-.02ZM178.02,28.91v20.42h-26.39v-20.42h-6.06v48.18h6.06v-21.95h26.39v21.95h6.06V28.91h-6.06ZM221.88,55.8c4.06,1.56,4.83,4.26,4.96,9.45v11.84h-6.32v-10.21c0-3.26-.5-5.48-1.5-6.59-.98-1.1-2.98-1.65-5.95-1.65h-16.34v18.45h-6.06V28.91h21.77c5.38,0,9.17.83,11.24,2.46,2.1,1.65,3.16,4.61,3.16,8.77v7.15c-.04,4.61-1.62,7.34-4.96,8.51ZM220.52,41.06c0-2.42-.54-4.08-1.6-4.94-1.09-.89-3.63-1.33-7.53-1.33h-14.66v18.07h14.66c3.82,0,6.33-.46,7.47-1.37,1.11-.88,1.67-2.53,1.67-4.91v-5.52h-.01ZM233.42,28.91v48.18h6.13V28.91h-6.13ZM277.34,55.8c4.06,1.56,4.83,4.26,4.96,9.45v11.84h-6.32v-10.21c0-3.26-.5-5.48-1.49-6.59-.98-1.1-2.98-1.65-5.95-1.65h-16.34v18.45h-6.06V28.91h21.77c5.39,0,9.17.83,11.24,2.46,2.1,1.65,3.17,4.61,3.17,8.77v7.15c-.05,4.61-1.63,7.34-4.96,8.51h-.02ZM275.98,41.06c0-2.42-.54-4.08-1.6-4.94-1.09-.89-3.62-1.33-7.53-1.33h-14.66v18.07h14.66c3.82,0,6.33-.46,7.47-1.37,1.11-.88,1.67-2.53,1.67-4.91v-5.52h-.01ZM333.67,77.09h-6.31l-4.47-12.13h-23.32l-4.37,12.13h-6.31l.07-.18c.1-.26,17.46-47.41,17.63-47.86l.05-.14h9.2l17.84,48.18h-.01ZM320.89,59.43l-9.12-24.65h-1.09l-9.05,24.65h19.26ZM390.62,28.91h-9.39l-15.75,41.37-15.9-41.37h-9.33v48.18h6.06v-41.01c2.5,6.57,15.51,40.87,15.55,40.98v.03h7.13l15.56-41.01v41.01h6.06V28.91h.01Z" fill="#ffffff"/>
  <path d="M105.95,112.45l8.04-21.73h3.94l8.07,21.73h-2.48l-2.06-5.56h-11l-2.03,5.56h-2.48ZM111.27,104.74h9.41l-4.33-11.71h-.78l-4.3,11.71ZM128.1,107.88h2.3v.36c0,2.09,1.25,2.48,4.39,2.48s4.33-.06,4.33-2.63c0-2.24-.69-2.48-3.38-2.63-3.11-.15-5.11-.06-5.92-.51-1.25-.69-1.61-1.79-1.61-3.71,0-3.86,1.85-4.36,7.02-4.36,4.03,0,5.86.66,5.86,3.88h-2.27v-.15c0-1.52-1.32-1.79-4.39-1.79s-3.95.3-3.95,2.42c0,.96.06,1.52.6,1.82.84.45,2.12.39,3.94.45,2.36.09,3.91.24,4.6.54,1.43.66,1.88,1.79,1.88,3.89s-.39,3.17-1.94,4.12c-.72.45-2.3.6-4.75.6-4.72,0-6.72-.6-6.72-4.36v-.42ZM145.53,107.88h2.3v.36c0,2.09,1.26,2.48,4.39,2.48s4.33-.06,4.33-2.63c0-2.24-.69-2.48-3.38-2.63-3.11-.15-5.11-.06-5.92-.51-1.25-.69-1.61-1.79-1.61-3.71,0-3.86,1.85-4.36,7.02-4.36,4.03,0,5.86.66,5.86,3.88h-2.27v-.15c0-1.52-1.32-1.79-4.39-1.79s-3.94.3-3.94,2.42c0,.96.06,1.52.6,1.82.84.45,2.12.39,3.95.45,2.36.09,3.91.24,4.6.54,1.43.66,1.88,1.79,1.88,3.89s-.39,3.17-1.94,4.12c-.72.45-2.3.6-4.75.6-4.72,0-6.72-.6-6.72-4.36v-.42ZM169.07,112.66c-4.6,0-6.19-1.58-6.19-6.07v-3.65c0-4.48,1.55-6.07,6.16-6.07h1.08c4.6,0,6.19,1.58,6.19,6.07v2.33h-11.06c-.03.48-.03.93-.03,1.32,0,3.26.84,4,3.82,4h1.08c2.45,0,3.59-.48,3.79-2.66h2.36c-.24,3.44-2.12,4.72-6.13,4.72h-1.08ZM165.25,103.28h8.7v-.6c0-3.02-.93-3.71-3.82-3.71h-1.08c-2.9,0-3.79.69-3.79,3.71v.6ZM178.89,99.04v-1.94h1.88v-3.47h2.27v3.47h7.53v1.94h-7.53v8.46c0,2.42.63,3.11,2.84,3.11s2.81-.72,2.81-3.11v-.45h2.3v.12c0,4.63-1.32,5.5-5.53,5.5-3.62,0-4.69-1.46-4.69-5.5v-8.13h-1.88ZM205.52,112.45v-21.73h3.95l7.44,19.36,7.38-19.36h3.97v21.73h-2.39v-19.69l-7.5,19.69h-2.96l-7.5-19.69v19.69h-2.39ZM243.39,110.84c-.75,1.35-2.3,1.82-4.84,1.82-4.48,0-6.07-.87-6.07-4.87,0-1.94.27-3.2,1.23-4,.84-.69,2.36-.87,4.72-.87,2.51,0,4.03.33,4.84,1.5v-2.66c0-2.72-.81-2.99-4.39-2.99-2.57,0-3.53.33-3.56,2.12h-2.27v-.36c0-2.78,1.76-3.65,5.68-3.65,2.87,0,4.69.18,5.59.87,1.17.9,1.23,2.12,1.23,3.94v10.76h-2.06l-.09-1.61ZM243.27,108.54v-1.61c0-1.52-1.55-2.12-4.66-2.12-2.87,0-3.74.51-3.74,2.72,0,2.45.84,3.02,3.97,3.02,2.96,0,4.42-.75,4.42-2ZM250.13,112.45v-15.36h2.18v2.09c.75-1.58,2.36-2.3,5.02-2.3,4.09,0,5.44,1.49,5.44,5.5v10.07h-2.27v-9.59c0-2.99-.54-3.92-3.47-3.92-3.2,0-4.63,1.4-4.63,4.57v8.94h-2.27ZM277.51,110.84c-.75,1.35-2.3,1.82-4.84,1.82-4.48,0-6.07-.87-6.07-4.87,0-1.94.27-3.2,1.23-4,.84-.69,2.36-.87,4.72-.87,2.51,0,4.03.33,4.84,1.5v-2.66c0-2.72-.81-2.99-4.39-2.99-2.57,0-3.53.33-3.56,2.12h-2.27v-.36c0-2.78,1.76-3.65,5.68-3.65,2.87,0,4.69.18,5.59.87,1.17.9,1.23,2.12,1.23,3.94v10.76h-2.06l-.09-1.61ZM277.39,108.54v-1.61c0-1.52-1.55-2.12-4.66-2.12-2.87,0-3.73.51-3.73,2.72,0,2.45.84,3.02,3.97,3.02,2.96,0,4.42-.75,4.42-2ZM297.09,97.09v15.18c0,4.48-1.52,6.07-6.01,6.07h-1.04c-3.92,0-5.71-1.28-5.95-4.72h2.3c.21,2.18,1.29,2.63,3.67,2.63h1.02c2.48,0,3.74-.66,3.74-2.81v-3.17c-.9,1.76-2.36,2.39-4.78,2.39-4.45,0-5.98-1.67-5.98-6.07v-3.65c0-4.39,1.52-6.07,5.98-6.07,2.57,0,4.12.78,4.87,2.6v-2.39h2.18ZM294.82,106.03v-2.51c0-3.2-1.4-4.57-4.69-4.57s-3.73,1.05-3.73,4.51v2.63c0,3.47.42,4.51,3.73,4.51s4.69-1.37,4.69-4.57ZM307.37,112.66c-4.6,0-6.19-1.58-6.19-6.07v-3.65c0-4.48,1.55-6.07,6.16-6.07h1.08c4.6,0,6.19,1.58,6.19,6.07v2.33h-11.06c-.03.48-.03.93-.03,1.32,0,3.26.84,4,3.82,4h1.08c2.45,0,3.59-.48,3.8-2.66h2.36c-.24,3.44-2.12,4.72-6.13,4.72h-1.08ZM303.55,103.28h8.7v-.6c0-3.02-.93-3.71-3.83-3.71h-1.08c-2.9,0-3.8.69-3.8,3.71v.6ZM319.04,112.45v-15.36h2.21v2.09c.66-1.58,2.15-2.3,4.6-2.3s3.95.69,4.69,2.54c.93-1.82,2.33-2.54,4.66-2.54,4.06,0,5.35,1.4,5.35,5.5v10.07h-2.27v-9.35c0-3.17-.48-4.15-3.26-4.15s-4.06,1.43-4.06,4.57v8.94h-2.21v-10.4c0-2.39-.66-3.11-3.2-3.11-2.93,0-4.24,1.43-4.24,4.57v8.94h-2.27ZM350.68,112.66c-4.6,0-6.19-1.58-6.19-6.07v-3.65c0-4.48,1.55-6.07,6.16-6.07h1.08c4.6,0,6.19,1.58,6.19,6.07v2.33h-11.06c-.03.48-.03.93-.03,1.32,0,3.26.84,4,3.82,4h1.08c2.45,0,3.59-.48,3.79-2.66h2.36c-.24,3.44-2.12,4.72-6.13,4.72h-1.08ZM346.85,103.28h8.7v-.6c0-3.02-.93-3.71-3.82-3.71h-1.08c-2.9,0-3.79.69-3.79,3.71v.6ZM362.02,112.45v-15.36h2.18v2.09c.75-1.58,2.36-2.3,5.02-2.3,4.09,0,5.44,1.49,5.44,5.5v10.07h-2.27v-9.59c0-2.99-.54-3.92-3.47-3.92-3.2,0-4.63,1.4-4.63,4.57v8.94h-2.27ZM377.71,99.04v-1.94h1.88v-3.47h2.27v3.47h7.53v1.94h-7.53v8.46c0,2.42.63,3.11,2.84,3.11s2.81-.72,2.81-3.11v-.45h2.3v.12c0,4.63-1.32,5.5-5.53,5.5-3.62,0-4.69-1.46-4.69-5.5v-8.13h-1.88Z" fill="#ffffff"/>
  <path d="M370.42,178.61h.78v6.05c0,.45-.04.87-.14,1.29-.09.41-.25.77-.48,1.08-.23.31-.55.56-.96.74-.41.18-.93.28-1.57.28-.49,0-.92-.06-1.27-.19-.36-.12-.64-.29-.87-.48-.23-.19-.4-.4-.51-.63-.12-.22-.18-.44-.19-.64h.83c.06.25.16.46.29.61.13.16.29.29.46.37.17.09.37.16.59.19.22.03.44.05.68.05.53,0,.95-.09,1.26-.27.32-.18.56-.42.73-.71.16-.29.27-.62.32-.99.04-.37.07-.75.06-1.14-.25.41-.6.73-1.03.93-.43.21-.89.32-1.37.32-.51,0-.95-.1-1.32-.29-.37-.19-.68-.45-.93-.78-.24-.32-.43-.7-.55-1.13-.12-.43-.18-.88-.18-1.34,0-.49.05-.95.17-1.38.11-.43.29-.8.54-1.12.24-.31.56-.56.93-.74.38-.18.84-.27,1.38-.27.22,0,.43.03.66.09.23.05.44.15.66.26.21.11.41.25.58.42.17.17.32.36.43.58h.03v-1.18h.02ZM370.42,181.98c0-.41-.05-.78-.15-1.13-.1-.35-.24-.65-.43-.91-.19-.25-.42-.46-.71-.6s-.61-.22-.97-.22c-.33,0-.63.06-.91.17-.28.11-.52.29-.73.51-.21.23-.37.49-.49.82-.11.32-.17.69-.17,1.12-.02.42.02.81.1,1.18.09.36.23.69.42.96.19.27.43.49.73.66.29.16.64.24,1.05.24.35,0,.67-.08.95-.22.28-.15.52-.35.71-.61.19-.25.35-.55.45-.89.1-.34.15-.7.15-1.08h0Z" fill="#cccccc"/>
  <path d="M373.37,185.3h-.78v-6.69h.78v1.25h.03c.22-.54.49-.91.83-1.12.34-.21.79-.32,1.35-.32v.84c-.44,0-.8.06-1.09.21-.29.15-.51.35-.67.6-.16.25-.29.54-.35.88-.06.34-.1.7-.1,1.06v3.29Z" fill="#cccccc"/>
  <path d="M378.95,185.49c-.43,0-.83-.09-1.21-.23-.37-.15-.7-.36-.99-.66-.29-.29-.5-.66-.67-1.1-.16-.44-.24-.95-.24-1.54,0-.49.06-.95.19-1.38.13-.42.32-.79.58-1.12.26-.32.58-.57.97-.75.39-.18.84-.28,1.36-.28s.99.1,1.37.28c.39.18.71.43.97.75.26.31.45.68.57,1.12.12.43.19.89.19,1.38,0,.54-.07,1.02-.22,1.44-.15.42-.35.8-.62,1.12-.27.31-.6.55-.99.72-.38.16-.8.25-1.27.25h0ZM381.23,181.96c0-.4-.04-.77-.13-1.12-.09-.35-.22-.64-.4-.9-.18-.25-.42-.46-.7-.6-.29-.15-.63-.22-1.05-.22s-.75.08-1.04.24c-.29.16-.52.37-.7.63-.18.26-.31.56-.4.91-.09.34-.13.69-.13,1.05,0,.42.05.8.15,1.14.1.35.24.65.43.9.19.25.42.44.71.58.29.14.61.21.99.21.41,0,.75-.08,1.04-.24.29-.16.52-.37.7-.64.18-.27.31-.57.4-.91.09-.34.13-.68.13-1.05h0Z" fill="#cccccc"/>
  <path d="M387.43,178.61h.78v6.69h-.78v-.93c-.1.12-.22.24-.35.37-.13.13-.28.25-.45.35-.16.1-.36.2-.59.27-.23.07-.48.11-.78.11-.45,0-.82-.06-1.12-.19-.3-.12-.55-.3-.73-.53-.18-.22-.32-.48-.4-.78-.08-.29-.12-.62-.12-.98v-4.41h.78v4.39c0,.58.13,1.02.4,1.32.27.3.71.46,1.32.46.32,0,.6-.06.86-.19.25-.12.47-.3.64-.53.17-.22.3-.49.4-.8.1-.31.14-.65.14-1.02v-3.65.04h0Z" fill="#cccccc"/>
  <path d="M390.37,187.95h-.78v-9.33h.78v1.18h.03c.11-.22.26-.41.43-.58.17-.17.37-.31.58-.42.21-.11.42-.2.66-.26.23-.06.44-.09.66-.09.54,0,1,.09,1.38.27.38.18.69.43.93.74.24.31.42.68.54,1.12.11.43.16.89.16,1.38,0,.47-.06.92-.18,1.34-.12.43-.3.81-.55,1.13-.24.32-.55.58-.93.78-.37.19-.81.29-1.32.29-.48,0-.93-.1-1.37-.32-.43-.21-.78-.53-1.03-.93v3.71h.02ZM390.37,181.99c0,.38.05.74.16,1.08.1.34.25.64.45.89.19.25.43.46.71.61.28.15.6.22.95.22.4,0,.74-.08,1.04-.24.29-.16.54-.38.73-.66.19-.28.33-.6.42-.96.09-.36.12-.76.1-1.18,0-.42-.06-.79-.17-1.11-.12-.32-.28-.6-.48-.82s-.45-.4-.73-.51c-.28-.12-.58-.17-.91-.17-.36,0-.68.07-.97.22-.29.15-.52.35-.71.6-.19.25-.34.55-.43.91-.1.35-.15.73-.15,1.13Z" fill="#cccccc"/>
  <path d="M277.05,180.05c.1,1.06.51,1.79,1.2,2.22.69.42,1.53.63,2.5.63.34,0,.73-.03,1.16-.08.43-.05.84-.16,1.22-.3.38-.15.69-.36.93-.65.24-.29.35-.66.33-1.12-.02-.47-.19-.84-.5-1.14-.32-.29-.73-.54-1.22-.71-.49-.18-1.06-.33-1.7-.46-.63-.13-1.28-.26-1.93-.42-.67-.15-1.32-.33-1.95-.54-.62-.21-1.18-.49-1.68-.86-.49-.35-.89-.81-1.18-1.38-.29-.56-.44-1.25-.44-2.08,0-.88.22-1.63.65-2.23.43-.6.98-1.09,1.64-1.45.67-.37,1.4-.62,2.21-.78.81-.15,1.58-.22,2.33-.22.84,0,1.65.09,2.42.27.77.18,1.46.47,2.08.87.62.4,1.14.93,1.55,1.57.42.64.67,1.42.78,2.33h-3.76c-.17-.87-.56-1.45-1.18-1.74-.62-.29-1.33-.44-2.14-.44-.25,0-.55.02-.9.06s-.67.12-.98.23c-.3.11-.56.29-.78.51-.21.22-.32.51-.32.87,0,.44.16.8.46,1.07.3.28.71.5,1.2.68.5.18,1.06.33,1.7.46.63.13,1.29.27,1.96.41.66.15,1.3.33,1.94.54.63.21,1.2.49,1.7.86.49.35.9.81,1.2,1.36.3.54.46,1.22.46,2.02,0,.97-.23,1.79-.67,2.46-.44.68-1.02,1.22-1.73,1.64-.71.42-1.5.73-2.36.92-.86.19-1.72.29-2.57.29-1.04,0-1.99-.11-2.87-.35-.87-.23-1.63-.59-2.28-1.06-.64-.48-1.15-1.06-1.52-1.77-.37-.71-.56-1.55-.59-2.52h3.61l.02.02Z" fill="#0075c9"/>
  <path d="M289.85,173.81c.38-.57.87-1.04,1.46-1.38.59-.35,1.25-.6,2-.74.73-.15,1.48-.23,2.23-.23.68,0,1.37.05,2.06.15.69.1,1.33.29,1.9.56.57.28,1.05.67,1.41,1.16.36.49.55,1.15.55,1.97v7.01c0,.6.03,1.19.1,1.75.07.55.19.98.36,1.25h-3.75c-.07-.21-.13-.42-.17-.64-.04-.22-.08-.44-.1-.67-.59.61-1.29,1.04-2.08,1.28-.8.24-1.62.36-2.45.36-.64,0-1.24-.08-1.8-.23-.55-.16-1.05-.4-1.46-.73-.42-.33-.74-.74-.98-1.25-.23-.5-.35-1.11-.35-1.8,0-.76.14-1.39.41-1.89.27-.49.61-.89,1.05-1.18.42-.29.92-.52,1.46-.67.55-.15,1.1-.27,1.65-.35.55-.09,1.11-.16,1.64-.21.54-.05,1.02-.13,1.44-.23.41-.1.74-.26.99-.46.24-.2.35-.49.34-.87,0-.4-.06-.72-.2-.95-.13-.23-.3-.42-.52-.54-.22-.13-.47-.22-.75-.26-.29-.04-.6-.07-.93-.07-.73,0-1.31.16-1.72.47-.42.31-.66.83-.73,1.57h-3.7c.05-.87.27-1.59.65-2.16h0ZM297.17,179.04c-.23.08-.48.15-.75.2-.27.05-.55.1-.85.13-.29.03-.59.08-.88.13-.28.05-.55.12-.82.21-.27.09-.5.21-.7.35-.2.15-.36.34-.49.56-.12.23-.18.51-.18.86s.06.61.18.83c.12.23.29.41.49.54.21.13.45.22.73.28.28.05.56.08.86.08.73,0,1.3-.12,1.69-.36.4-.24.69-.54.88-.87.19-.34.31-.68.35-1.03.04-.35.06-.62.06-.83v-1.38c-.15.14-.35.25-.59.33h0Z" fill="#0075c9"/>
  <path d="M306.44,171.82v1.88h.08c.47-.78,1.08-1.35,1.83-1.7.74-.35,1.51-.54,2.29-.54.99,0,1.8.14,2.44.41.63.27,1.13.64,1.5,1.12.36.47.62,1.06.77,1.75s.23,1.44.23,2.28v8.29h-3.7v-7.61c0-1.12-.17-1.95-.52-2.49-.35-.54-.97-.82-1.85-.82-1.01,0-1.74.3-2.19.9-.45.6-.67,1.58-.67,2.96v7.07h-3.7v-13.47h3.52v-.02h0Z" fill="#0075c9"/>
  <path d="M320.69,166.69v18.61h-3.7v-18.61h3.7Z" fill="#0075c9"/>
  <path d="M322.84,173.81c.38-.57.86-1.04,1.46-1.38.59-.35,1.25-.6,2-.74.73-.15,1.48-.23,2.23-.23.68,0,1.37.05,2.06.15.69.1,1.33.29,1.9.56.57.28,1.05.67,1.41,1.16.36.49.55,1.15.55,1.97v7.01c0,.6.03,1.19.1,1.75.07.55.19.98.36,1.25h-3.75c-.07-.21-.13-.42-.17-.64-.04-.22-.08-.44-.1-.67-.59.61-1.29,1.04-2.08,1.28-.8.24-1.62.36-2.45.36-.64,0-1.24-.08-1.8-.23-.55-.16-1.05-.4-1.46-.73-.41-.33-.74-.74-.98-1.25-.23-.5-.35-1.11-.35-1.8,0-.76.14-1.39.41-1.89.27-.49.61-.89,1.05-1.18.42-.29.91-.52,1.46-.67.55-.15,1.1-.27,1.65-.35.55-.09,1.11-.16,1.64-.21.54-.05,1.02-.13,1.43-.23.41-.1.74-.26.99-.46.24-.2.35-.49.34-.87,0-.4-.07-.72-.2-.95-.13-.23-.3-.42-.52-.54-.22-.13-.47-.22-.75-.26-.29-.04-.6-.07-.93-.07-.73,0-1.31.16-1.72.47-.42.31-.66.83-.73,1.57h-3.7c.05-.87.27-1.59.65-2.16h0ZM330.16,179.04c-.23.08-.48.15-.75.2-.27.05-.55.1-.85.13-.29.03-.59.08-.88.13-.28.05-.55.12-.82.21-.27.09-.5.21-.7.35s-.36.34-.48.56c-.12.23-.18.51-.18.86s.06.61.18.83c.12.23.29.41.49.54.21.13.45.22.73.28.28.05.56.08.86.08.73,0,1.3-.12,1.7-.36.4-.24.69-.54.89-.87.19-.34.31-.68.36-1.03.04-.35.07-.62.07-.83v-1.38c-.16.14-.36.25-.59.33h0Z" fill="#0075c9"/>
  <path d="M339.35,171.82v1.82h.05c.49-.69,1.07-1.24,1.76-1.62.68-.38,1.47-.57,2.36-.57s1.63.16,2.33.49c.7.33,1.24.92,1.6,1.75.4-.59.94-1.12,1.63-1.57.68-.45,1.5-.68,2.44-.68.71,0,1.38.09,1.98.26.6.17,1.13.45,1.56.83.43.38.77.88,1.02,1.5.24.61.36,1.36.36,2.23v9.02h-3.7v-7.64c0-.45-.02-.87-.05-1.28-.03-.4-.13-.74-.29-1.05-.16-.29-.39-.53-.69-.7-.3-.17-.72-.26-1.24-.26s-.94.1-1.26.3c-.32.2-.57.46-.75.78-.18.32-.3.68-.36,1.1-.06.41-.1.82-.1,1.24v7.51h-3.7v-7.56c0-.4,0-.8-.03-1.19-.02-.39-.1-.75-.23-1.08-.13-.33-.35-.6-.65-.8-.3-.2-.75-.3-1.34-.3-.17,0-.41.04-.69.12-.29.08-.56.22-.83.44-.27.22-.5.53-.69.94-.19.41-.29.94-.29,1.6v7.82h-3.7v-13.47h3.49,0Z" fill="#0075c9"/>
  <path d="M260.35,174.53c0-2.15-1.76-3.88-3.93-3.88s-3.93,1.74-3.93,3.88,1.76,3.88,3.93,3.88,3.93-1.74,3.93-3.88Z" fill="#0075c9"/>
  <path d="M255.02,179.95c-.97-.89-1.86-1.46-2.54-2.53-.59-.78-.98-1.86-.98-2.83s.29-1.76.78-2.44c.63-1.02,1.31-2.03,1.85-2.93.26-.44.53-.89.8-1.41.59-1.07,1.46-2.34.39-3.81,0,0-.29.48-8.49,11.51,0,0-.02.02-.03.04-.11.17-.18.37-.18.62v.02c0,.31.09.57.23.8l3.09,5.02c.28.54.37,1.54.39,2.34v1.68c0,.88.74,1.39,1.7,1.4h3.79v-4.27c0-.29,0-1.71-.09-2.03-.11-.5-.33-.81-.72-1.18h0Z" fill="#0075c9"/>
  <path d="M257.83,179.95c.97-.89,1.85-1.46,2.54-2.53.59-.78.98-1.86.98-2.83s-.29-1.76-.78-2.44c-.63-1.02-1.31-2.03-1.85-2.93-.26-.44-.53-.89-.8-1.41-.59-1.07-1.46-2.34-.39-3.81,0,0,.29.48,8.49,11.51,0,0,.02.02.03.04.11.17.18.37.18.62v.02c0,.31-.09.57-.23.8l-3.09,5.02c-.29.54-.37,1.54-.39,2.34v1.68c0,.88-.74,1.39-1.7,1.4h-3.79v-4.27c0-.29,0-1.71.09-2.03.11-.5.33-.81.72-1.18h0Z" fill="#0075c9"/>
  <path d="M162.04,181.46c.15-.02.32-.04.52-.08.2-.04.37-.08.49-.14.12-.06.21-.16.24-.3.04-.14.04-.28.04-.4,0-.4-.13-.72-.38-.98-.25-.25-.68-.38-1.29-.38-.27,0-.51.03-.74.07-.22.05-.42.13-.59.24-.16.11-.3.27-.41.47-.11.2-.18.44-.22.73h-.79c.03-.4.11-.74.27-1.01.16-.28.36-.51.6-.68.24-.17.53-.3.86-.39.32-.08.67-.12,1.03-.12.34,0,.65.04.95.11.29.08.55.19.78.35.22.16.39.37.52.64.12.27.19.6.19.98v3.64c0,.3.05.49.16.57.1.08.33.06.65-.06v.61c-.06.02-.15.04-.27.08-.11.03-.23.05-.35.05-.12,0-.23-.02-.35-.04-.13-.02-.23-.06-.31-.12-.08-.06-.14-.14-.19-.23-.05-.1-.08-.19-.1-.29-.02-.1-.03-.23-.03-.35-.33.36-.7.64-1.12.83-.42.19-.88.29-1.37.29-.29,0-.57-.03-.85-.11-.28-.08-.51-.2-.72-.36-.21-.16-.37-.36-.49-.6-.12-.23-.18-.52-.18-.85,0-1.13.78-1.81,2.33-2.01l1.07-.14h.02ZM163.35,181.85c-.33.14-.66.23-1,.27-.34.04-.67.08-1,.1-.6.04-1.06.17-1.39.4-.33.22-.49.56-.49,1.02,0,.21.04.39.12.54.08.15.19.28.32.37.13.1.29.17.47.22.17.05.35.07.54.07.31,0,.61-.03.91-.11.29-.08.55-.2.78-.35.23-.16.42-.36.54-.61.14-.24.21-.54.21-.87v-1.05h0Z" fill="#cccccc"/>
  <path d="M166.02,183.26c.12.58.34.99.65,1.22.31.23.76.35,1.35.35.29,0,.53-.03.74-.1.21-.07.38-.16.51-.28.13-.11.23-.25.3-.4.07-.15.1-.3.1-.47,0-.33-.1-.57-.32-.73-.21-.15-.48-.29-.8-.37-.32-.09-.67-.16-1.03-.23-.36-.07-.72-.16-1.03-.29-.31-.13-.58-.31-.8-.55-.21-.24-.32-.58-.32-1.02,0-.56.21-1.02.61-1.38.41-.35.99-.54,1.74-.54s1.31.17,1.76.49c.45.32.73.87.82,1.62h-.79c-.07-.52-.27-.88-.59-1.09-.32-.21-.73-.32-1.22-.32s-.86.1-1.12.32c-.26.21-.39.49-.39.83,0,.3.1.54.32.69.21.15.47.29.79.39.32.09.67.19,1.03.27.37.08.72.19,1.03.33.32.14.58.34.79.57.21.24.32.58.32,1,0,.32-.07.6-.21.85-.14.24-.33.45-.57.61s-.53.29-.86.37c-.33.08-.69.12-1.09.12s-.74-.06-1.05-.17c-.31-.11-.56-.28-.78-.48-.22-.21-.38-.45-.5-.73-.12-.28-.19-.57-.21-.89h.79Z" fill="#cccccc"/>
  <path d="M171.9,183.26c.12.58.34.99.65,1.22.31.23.76.35,1.35.35.29,0,.53-.03.74-.1.21-.07.38-.16.51-.28.13-.11.23-.25.3-.4.07-.15.1-.3.1-.47,0-.33-.1-.57-.32-.73-.21-.15-.48-.29-.8-.37-.32-.09-.67-.16-1.03-.23-.36-.07-.72-.16-1.03-.29-.31-.13-.58-.31-.8-.55-.21-.24-.32-.58-.32-1.02,0-.56.21-1.02.61-1.38.41-.35.99-.54,1.74-.54s1.31.17,1.76.49c.45.32.73.87.82,1.62h-.79c-.07-.52-.27-.88-.59-1.09-.32-.21-.73-.32-1.22-.32s-.86.1-1.12.32c-.26.21-.39.49-.39.83,0,.3.1.54.32.69.21.15.48.29.79.39.32.09.67.19,1.03.27.37.08.72.19,1.03.33.32.14.58.34.79.57.21.24.32.58.32,1,0,.32-.07.6-.21.85-.14.24-.33.45-.57.61-.24.16-.53.29-.86.37-.33.08-.69.12-1.09.12s-.74-.06-1.05-.17c-.31-.11-.56-.28-.78-.48-.22-.21-.38-.45-.5-.73-.12-.28-.19-.57-.21-.89h.79Z" fill="#cccccc"/>
  <path d="M179.98,185.54c-.43,0-.83-.09-1.21-.23-.37-.15-.7-.36-.99-.66-.28-.29-.5-.66-.66-1.1-.17-.44-.24-.95-.24-1.54,0-.49.06-.95.19-1.38.13-.42.32-.8.58-1.12.26-.32.58-.57.97-.75.39-.18.84-.28,1.36-.28s.98.1,1.37.28c.39.18.71.43.97.75.26.31.45.68.57,1.12.12.43.19.89.19,1.38,0,.54-.07,1.01-.22,1.44-.15.43-.35.81-.62,1.11-.27.31-.6.54-.98.72-.38.16-.81.25-1.27.25ZM182.26,182.01c0-.4-.04-.77-.13-1.11-.09-.35-.22-.64-.4-.9-.18-.25-.41-.46-.7-.6-.29-.14-.63-.22-1.05-.22s-.75.08-1.04.24c-.29.16-.52.37-.7.63-.18.26-.31.56-.4.91-.09.34-.13.69-.13,1.06,0,.42.05.8.15,1.14.1.35.24.65.43.9.19.25.42.44.71.58.29.14.61.21.99.21.41,0,.75-.08,1.04-.24.29-.16.52-.37.7-.64.18-.27.31-.57.4-.91.09-.34.13-.68.13-1.05h0Z" fill="#cccccc"/>
  <path d="M188.67,180.77c-.14-.5-.37-.89-.71-1.17-.34-.28-.76-.42-1.28-.42-.4,0-.74.08-1.02.24-.29.16-.52.38-.7.65-.18.27-.31.58-.4.92-.09.34-.13.68-.13,1.03s.04.7.12,1.03c.08.34.22.64.4.91.18.27.42.48.7.64.29.16.63.24,1.03.24.58,0,1.04-.15,1.39-.48.35-.32.57-.76.67-1.32h.83c-.07.37-.18.71-.33,1.01-.15.3-.35.57-.58.79-.23.22-.52.39-.85.51-.33.12-.7.18-1.12.18-.54,0-1-.09-1.38-.27-.39-.18-.71-.42-.95-.74-.25-.31-.43-.68-.55-1.12-.12-.43-.18-.89-.18-1.38,0-.47.07-.91.2-1.34.13-.43.33-.8.59-1.13.26-.33.58-.59.96-.78.38-.19.82-.29,1.32-.29.78,0,1.4.18,1.88.55.47.37.78.95.9,1.73h-.79Z" fill="#cccccc"/>
  <path d="M195.88,181.46c.15-.02.32-.04.52-.08.2-.04.37-.08.49-.14.12-.06.21-.16.24-.3.03-.14.04-.28.04-.4,0-.4-.13-.72-.38-.98-.25-.25-.68-.38-1.29-.38-.27,0-.51.03-.74.07-.22.05-.42.13-.59.24-.16.11-.3.27-.42.47-.11.2-.18.44-.22.73h-.79c.03-.4.11-.74.27-1.01.16-.28.36-.51.6-.68.24-.17.53-.3.86-.39.32-.08.67-.12,1.03-.12.34,0,.65.04.95.11.29.08.55.19.78.35.22.16.39.37.52.64.12.27.19.6.19.98v3.64c0,.3.05.49.16.57.1.08.33.06.65-.06v.61c-.06.02-.15.04-.27.08-.11.03-.23.05-.35.05-.12,0-.23-.02-.35-.04-.13-.02-.23-.06-.31-.12-.08-.06-.14-.14-.19-.23-.05-.1-.08-.19-.1-.29-.02-.1-.03-.23-.03-.35-.33.36-.7.64-1.12.83-.42.19-.88.29-1.37.29-.29,0-.57-.03-.85-.11-.28-.08-.51-.2-.72-.36-.21-.16-.37-.36-.49-.6-.12-.23-.18-.52-.18-.85,0-1.13.78-1.81,2.34-2.01l1.07-.14h.02ZM197.18,181.85c-.33.14-.66.23-.99.27-.34.04-.67.08-1,.1-.6.04-1.06.17-1.39.4-.33.22-.49.56-.49,1.02,0,.21.04.39.12.54.08.15.19.28.32.37.13.1.29.17.47.22.17.05.35.07.54.07.31,0,.61-.03.91-.11.29-.08.55-.2.78-.35.23-.16.42-.36.54-.61.14-.24.21-.54.21-.87v-1.05h0Z" fill="#cccccc"/>
  <path d="M201.76,185.39c-.1.02-.22.04-.37.09-.16.04-.33.06-.52.06-.39,0-.68-.1-.88-.29-.2-.19-.3-.54-.3-1.04v-5.08h-.94v-.65h.94v-2.21h.78v2.21h1.25v.65h-1.25v4.77c0,.16,0,.3.02.42,0,.12.03.22.08.29.04.08.11.14.2.16.09.04.22.05.38.05.1,0,.21,0,.32-.03s.22-.04.32-.06v.63l-.02.02Z" fill="#cccccc"/>
  <path d="M232.71,185.39c-.1.02-.22.04-.37.09-.15.04-.33.06-.52.06-.39,0-.68-.1-.88-.29-.2-.19-.3-.54-.3-1.04v-5.08h-.94v-.65h.94v-2.21h.78v2.21h1.25v.65h-1.25v4.77c0,.16,0,.3.02.42,0,.12.03.22.08.29.04.08.11.14.2.16.09.04.22.05.38.05.1,0,.21,0,.32-.03.11-.03.22-.04.32-.06v.63l-.02.02Z" fill="#cccccc"/>
  <path d="M202.89,182.19c0,.36.04.7.14,1.03.1.32.23.61.42.84.18.23.42.42.7.57.29.14.61.22.99.22.51,0,.94-.13,1.31-.4.36-.27.61-.65.73-1.13h.87c-.1.32-.22.61-.37.88-.16.27-.35.51-.58.71-.23.2-.51.36-.83.48-.32.11-.69.16-1.11.16-.54,0-.99-.09-1.38-.27-.39-.18-.71-.42-.95-.74-.25-.31-.43-.68-.55-1.11-.12-.42-.18-.88-.18-1.38s.07-.95.22-1.38c.14-.43.35-.8.61-1.13.26-.32.58-.58.96-.76.38-.18.81-.28,1.29-.28.93,0,1.64.32,2.17.95.53.63.79,1.55.78,2.76h-5.19l-.02-.02ZM207.26,181.55c0-.33-.04-.63-.14-.92-.09-.29-.23-.54-.4-.75-.17-.21-.4-.38-.67-.5-.27-.12-.57-.19-.92-.19s-.65.06-.91.19c-.26.13-.48.3-.67.52-.19.22-.34.47-.44.75-.11.28-.18.59-.22.91h4.37,0Z" fill="#cccccc"/>
  <path d="M214.18,176.27h.78v9.09h-.78v-1.18h-.03c-.11.23-.26.42-.43.59-.17.17-.37.31-.58.42-.21.11-.43.2-.65.26-.23.06-.44.09-.66.09-.54,0-1-.09-1.38-.27-.38-.18-.69-.42-.93-.74-.24-.32-.42-.68-.54-1.12-.11-.43-.16-.89-.16-1.38,0-.47.06-.92.18-1.34s.3-.8.54-1.13c.24-.33.55-.58.93-.78.37-.19.81-.29,1.32-.29.48,0,.93.1,1.37.32.43.21.78.52,1.03.93v-3.47h-.02ZM214.18,181.98c0-.38-.05-.74-.16-1.08-.1-.34-.25-.64-.44-.89-.19-.25-.43-.46-.71-.61-.28-.15-.6-.23-.95-.23-.41,0-.75.08-1.05.24-.29.16-.54.38-.73.65-.19.28-.33.6-.41.96-.09.36-.12.76-.1,1.18,0,.42.06.8.17,1.12.11.32.28.6.48.82.21.23.45.4.73.51.28.11.58.17.91.17.36,0,.68-.07.97-.22.29-.15.52-.35.71-.6.19-.25.34-.55.43-.91.1-.35.15-.73.15-1.13Z" fill="#cccccc"/>
  <path d="M224.99,184.33l1.76-5.85h.79l-2.17,6.88h-.83l-1.46-5.62h-.03l-1.49,5.62h-.93l-2.04-6.88h.78l1.73,5.91,1.55-5.91h.86l1.47,5.85h.02Z" fill="#cccccc"/>
  <path d="M233.37,185.35v-9.09h.78v3.33c.31-.33.63-.6.96-.8.33-.21.73-.31,1.19-.31.42,0,.8.07,1.15.22.35.15.65.39.89.74.16.24.26.48.29.74.03.25.04.52.04.8v4.38h-.78v-4.37c0-.61-.13-1.06-.4-1.36-.27-.3-.71-.45-1.33-.45-.24,0-.46.04-.66.11-.2.07-.38.17-.54.29-.15.12-.29.26-.41.41-.11.16-.2.32-.26.49-.08.22-.12.42-.14.62-.02.2-.03.42-.03.65v3.61h-.78v-.02Z" fill="#cccccc"/>
  <path d="M191.42,178.49h-.78v6.87h.78v-6.87Z" fill="#cccccc"/>
  <path d="M191.03,177.53c.35,0,.63-.29.63-.63s-.28-.63-.63-.63-.63.28-.63.63.29.63.63.63Z" fill="#cccccc"/>
  <path d="M228.97,178.48h-.78v6.88h.78v-6.88Z" fill="#cccccc"/>
  <path d="M228.58,177.53c.35,0,.63-.29.63-.63s-.29-.63-.63-.63-.63.28-.63.63.28.63.63.63Z" fill="#cccccc"/>
  <path d="M.33,152.97v-14.94h2.55l8.1,13.33v-13.33h1.64v14.94h-2.55l-8.1-13.35v13.35H.33ZM16.12,138.03h1.66v9.8c0,1.44.04,2.34.7,2.94.7.64,1.6.66,2.88.66h1.56c1.27,0,2.2-.02,2.9-.66.64-.57.68-1.48.68-2.94v-9.8h1.66v10.01c0,3.82-1.31,5.12-5.12,5.12h-1.81c-3.8,0-5.12-1.3-5.12-5.12v-10.01ZM31.63,152.97v-14.94h6.74c3.21,0,4.42.74,4.42,3.41v2.26c0,1.56-.64,2.44-1.93,2.67,1.48.35,1.93,1.19,1.93,3v3.6h-1.73v-3.08c0-2.18-.55-2.73-2.49-2.73h-5.3v5.81h-1.64ZM38.04,139.61h-4.77v5.98h4.77c2.05,0,3.02-.23,3.02-2.12v-1.75c0-1.91-.9-2.12-3.02-2.12ZM43.58,139.61v-1.58h11.18v1.58h-4.77v13.35h-1.66v-13.35h-4.75ZM56.21,138.03h1.66v9.8c0,1.44.04,2.34.7,2.94.7.64,1.6.66,2.88.66h1.56c1.27,0,2.2-.02,2.9-.66.64-.57.68-1.48.68-2.94v-9.8h1.66v10.01c0,3.82-1.31,5.12-5.12,5.12h-1.81c-3.8,0-5.12-1.3-5.12-5.12v-10.01ZM71.72,152.97v-14.94h6.74c3.21,0,4.42.74,4.42,3.41v2.26c0,1.56-.64,2.44-1.93,2.67,1.48.35,1.93,1.19,1.93,3v3.6h-1.73v-3.08c0-2.18-.55-2.73-2.49-2.73h-5.3v5.81h-1.64ZM78.13,139.61h-4.77v5.98h4.77c2.05,0,3.02-.23,3.02-2.12v-1.75c0-1.91-.9-2.12-3.02-2.12ZM86.09,152.97v-14.94h1.66v14.94h-1.66ZM91.36,152.97v-14.94h2.55l8.1,13.33v-13.33h1.64v14.94h-2.55l-8.1-13.35v13.35h-1.64ZM106.72,142.96c0-3.84,1.4-5.12,5.38-5.12h1.89c3.62,0,5.38,1.17,5.38,3.86v.64h-1.7v-.18c0-2.26-1.11-2.75-3.78-2.75h-1.31c-1.48,0-2.53.04-3.35.74-.74.64-.78,1.62-.78,3.23v4.25c0,1.6.04,2.59.78,3.23.84.72,1.89.74,3.35.74h1.31c1.34,0,2.28-.02,3.04-.66.68-.58.74-1.5.74-2.96v-.92h-4.15v-1.52h5.86v2.51c0,3.84-1.4,5.12-5.38,5.12h-1.89c-3.99,0-5.38-1.27-5.38-5.12v-5.07ZM127.29,139.61v-1.58h11.18v1.58h-4.77v13.35h-1.66v-13.35h-4.75ZM140.06,152.97v-14.94h6.74c3.21,0,4.42.74,4.42,3.41v2.26c0,1.56-.64,2.44-1.93,2.67,1.48.35,1.93,1.19,1.93,3v3.6h-1.73v-3.08c0-2.18-.55-2.73-2.49-2.73h-5.3v5.81h-1.64ZM146.47,139.61h-4.77v5.98h4.77c2.05,0,3.02-.23,3.02-2.12v-1.75c0-1.91-.9-2.12-3.02-2.12ZM154.28,138.03h1.66v9.8c0,1.44.04,2.34.7,2.94.7.64,1.6.66,2.88.66h1.56c1.27,0,2.2-.02,2.9-.66.64-.57.68-1.48.68-2.94v-9.8h1.66v10.01c0,3.82-1.32,5.12-5.12,5.12h-1.81c-3.8,0-5.12-1.3-5.12-5.12v-10.01ZM169.4,148.1h1.64v.29c0,1.56.17,2.47.86,2.86.66.37,2.03.37,4.21.37,1.54,0,2.53-.17,3.02-.7.27-.29.37-.95.37-1.99,0-1.85-.08-2.47-1.66-2.59l-4.6-.37c-2.65-.21-3.66-1.11-3.66-3.97,0-1.6.27-2.67,1.11-3.41.78-.7,2.14-.74,4.13-.74h.53c2.18,0,3.7.04,4.81.99.57.49.84,1.38.84,2.69,0,.23,0,.47-.02.72h-1.66v-.37c0-.97-.08-1.58-.41-1.91-.51-.51-1.85-.55-4.13-.55-2.67,0-3.49.21-3.49,2.61,0,1.73.41,2.22,1.87,2.34l4.71.39c2.53.23,3.33,1.27,3.33,3.88,0,1.54-.1,2.63-.82,3.43-.94,1.07-2.46,1.11-4.81,1.11h-.74c-1.95,0-3.35-.04-4.36-.94-.78-.68-1.09-1.79-1.09-3.39,0-.25,0-.49.02-.74ZM182.41,139.61v-1.58h11.18v1.58h-4.77v13.35h-1.66v-13.35h-4.75ZM194.15,152.97v-2.18h1.77v2.63c0,1.05-.64,1.66-1.77,1.66v-.93c.51-.04.74-.25.74-.74v-.45h-.74ZM206.86,148.1h1.64v.29c0,1.56.16,2.47.86,2.86.66.37,2.03.37,4.21.37,1.54,0,2.53-.17,3.02-.7.27-.29.37-.95.37-1.99,0-1.85-.08-2.47-1.66-2.59l-4.6-.37c-2.65-.21-3.66-1.11-3.66-3.97,0-1.6.27-2.67,1.11-3.41.78-.7,2.14-.74,4.13-.74h.53c2.18,0,3.7.04,4.81.99.58.49.84,1.38.84,2.69,0,.23,0,.47-.02.72h-1.66v-.37c0-.97-.08-1.58-.41-1.91-.51-.51-1.85-.55-4.13-.55-2.67,0-3.49.21-3.49,2.61,0,1.73.41,2.22,1.87,2.34l4.71.39c2.53.23,3.33,1.27,3.33,3.88,0,1.54-.1,2.63-.82,3.43-.95,1.07-2.47,1.11-4.81,1.11h-.74c-1.95,0-3.35-.04-4.36-.94-.78-.68-1.09-1.79-1.09-3.39,0-.25,0-.49.02-.74ZM221.9,152.97v-14.94h1.64v6.45h8.61v-6.45h1.64v14.94h-1.64v-6.92h-8.61v6.92h-1.64ZM235.83,152.97l5.53-14.94h2.71l5.55,14.94h-1.71l-1.42-3.82h-7.56l-1.4,3.82h-1.71ZM239.49,147.67h6.47l-2.98-8.05h-.53l-2.96,8.05ZM251.64,152.97v-14.94h6.29c3.21,0,4.42.74,4.42,3.41v2.26c0,2.73-1.19,3.47-4.42,3.47h-4.64v5.79h-1.64ZM260.61,143.7v-2.2c0-1.68-.8-1.89-2.71-1.89h-4.62v5.98h4.62c1.83,0,2.71-.21,2.71-1.89ZM265.1,152.97v-14.94h1.66v14.94h-1.66ZM270.38,152.97v-14.94h2.55l8.1,13.33v-13.33h1.64v14.94h-2.55l-8.1-13.35v13.35h-1.64ZM285.73,142.96c0-3.84,1.4-5.12,5.38-5.12h1.89c3.62,0,5.38,1.17,5.38,3.86v.64h-1.71v-.18c0-2.26-1.11-2.75-3.78-2.75h-1.32c-1.48,0-2.53.04-3.35.74-.74.64-.78,1.62-.78,3.23v4.25c0,1.6.04,2.59.78,3.23.84.72,1.89.74,3.35.74h1.32c1.34,0,2.28-.02,3.04-.66.68-.58.74-1.5.74-2.96v-.92h-4.15v-1.52h5.86v2.51c0,3.84-1.4,5.12-5.38,5.12h-1.89c-3.98,0-5.38-1.27-5.38-5.12v-5.07ZM309.98,151.49h5.3c2.77,0,3.62-.68,3.62-3.51v-4.83c0-2.92-.76-3.64-3.62-3.64h-5.3v11.98ZM308.34,152.97v-14.94h7.21c3.76,0,5.08,1.32,5.08,4.99v4.93c0,3.68-1.32,5.01-5.08,5.01h-7.21ZM323.75,152.97v-14.94h6.74c3.21,0,4.42.74,4.42,3.41v2.26c0,1.56-.64,2.44-1.93,2.67,1.48.35,1.93,1.19,1.93,3v3.6h-1.73v-3.08c0-2.18-.56-2.73-2.49-2.73h-5.3v5.81h-1.64ZM330.16,139.61h-4.77v5.98h4.77c2.05,0,3.02-.23,3.02-2.12v-1.75c0-1.91-.9-2.12-3.02-2.12ZM338.11,152.97v-14.94h10.48v1.58h-8.83v4.89h8.59v1.52h-8.59v5.38h8.83v1.56h-10.48ZM349.65,152.97l5.53-14.94h2.71l5.55,14.94h-1.71l-1.42-3.82h-7.56l-1.4,3.82h-1.71ZM353.31,147.67h6.47l-2.98-8.05h-.53l-2.96,8.05ZM365.46,152.97v-14.94h2.71l5.12,13.31,5.07-13.31h2.73v14.94h-1.64v-13.54l-5.16,13.54h-2.03l-5.16-13.54v13.54h-1.64ZM384.31,148.1h1.64v.29c0,1.56.16,2.47.86,2.86.66.37,2.03.37,4.21.37,1.54,0,2.53-.17,3.02-.7.27-.29.37-.95.37-1.99,0-1.85-.08-2.47-1.67-2.59l-4.6-.37c-2.65-.21-3.66-1.11-3.66-3.97,0-1.6.27-2.67,1.11-3.41.78-.7,2.14-.74,4.13-.74h.53c2.18,0,3.7.04,4.81.99.57.49.84,1.38.84,2.69,0,.23,0,.47-.02.72h-1.66v-.37c0-.97-.08-1.58-.41-1.91-.51-.51-1.85-.55-4.13-.55-2.67,0-3.49.21-3.49,2.61,0,1.73.41,2.22,1.87,2.34l4.71.39c2.53.23,3.33,1.27,3.33,3.88,0,1.54-.1,2.63-.82,3.43-.95,1.07-2.46,1.11-4.81,1.11h-.74c-1.95,0-3.35-.04-4.36-.94-.78-.68-1.09-1.79-1.09-3.39,0-.25,0-.49.02-.74Z" fill="#ffffff"/>
</svg>